<svg xmlns="http://www.w3.org/2000/svg" xml:space="preserve" width="600.659" height="601.28949" viewBox="0 0 600.65899 601.28949"><defs><clipPath id="a" clipPathUnits="userSpaceOnUse"><path d="M0 480h640V0H0Z"/></clipPath></defs><g clip-path="url(#a)" transform="matrix(1.33333 0 0 -1.33333 -126.337 620.645)"><path d="m0 0-3.697-16.143c2.691 1.407 4.461 2.296 6.197 3.245 121.643 66.446 274.127-2.178 303.538-137.542 11.429-52.601 7.948-104.711-16.025-154.049-18.08-37.208-45.873-65.682-80.67-87.595-1.053-.664-2.271-1.063-4.465-2.069l4.036 17.513c-1.973-.988-3.184-1.543-4.346-2.185-120.061-66.3-268.388-3.236-303.901 129.194-7.835 29.217-8.142 58.957-5.635 88.762 3.6 42.808 19.526 80.699 47.325 113.485C-42.351-29.348-24.355-14.415-4.26-1.994-3.23-1.358-2.058-.953 0 0" style="fill:#fff;fill-opacity:1;fill-rule:nonzero;stroke:none" transform="translate(217.63 436.865)"/><path d="M0 0c9.521 7.352 18.871 13.809 30.037 16.862 2.151.588 4.857-.31 7.162-1.003 1.655-.497 3.061-1.806 4.59-2.732 2.445-1.478 6.583-2.557 7.018-4.481 1.049-4.638.402-9.667.344-14.539-.005-.544-.503-1.223-.965-1.6-8.96-7.294-17.898-14.609-29.522-17.434-3.51-.853-5.685-.107-7.373 3.41C7.857-14.366 3.943-7.446 0 0" style="fill:#fff;fill-opacity:1;fill-rule:nonzero;stroke:none" transform="translate(329.357 253.542)"/><path d="M0 0c8.259 5.216 15.696 10.691 23.849 14.72 3.828 1.89 10.304 2.877 13.285.867 3.506-2.365 6.507-8.563 6.208-12.852-.645-9.235-5.504-17.172-13.048-23.051-.324-.252-.878-.209-1.607-.365-.668 5.305-1.324 10.495-1.986 15.741-5.588-2.77-10.597-5.234-15.586-7.735-2.726-1.367-4.423-.718-5.717 2.167C3.634-6.571 1.466-2.815 0 0" style="fill:#fff;fill-opacity:1;fill-rule:nonzero;stroke:none" transform="translate(350.337 214.145)"/><path d="M0 0c5.084-13.195 6.804-25.797 1.206-39.405-7.86 9.04-15.56 17.33-12.438 30.081.271 1.105 1.17 2.255 2.099 2.963C-6.426-4.299-3.557-2.45 0 0" style="fill:#fff;fill-opacity:1;fill-rule:nonzero;stroke:none" transform="translate(399.309 270.62)"/><path d="M0 0c.129-2.332-.412-4.953.973-7.014 1.616-2.125 4.972-2.466 6.93-.605C9.932-5.623 9.204-2.55 9.384-.006 6.254-.039 3.13-.051 0 0m-15.985 5.983c10.369.071 20.745.142 31.114-.032-.316-5.191.966-10.736-1.217-15.638-3.124-6.782-13.976-7.239-17.931-1.062C-6.125-7.6-6.002-3.639-5.996-.013c-3.343-.032-6.679-.084-10.015.058a82.78 82.78 0 0 0 .026 5.938" style="fill:#3e1051;fill-opacity:1;fill-rule:nonzero;stroke:none" transform="translate(149.349 245.414)"/><path d="M0 0c6.692.979 13.435 1.532 20.127 2.505.361-1.604.592-3.227.747-4.862l-2.55-.928c2.292-1.385 3.761-3.787 3.6-6.518a48.81 48.81 0 0 0-5.398-.605c-.27 1.868-.315 4.27-2.195 5.313-1.417.98-3.202.677-4.799.529-2.924-.393-5.861-.696-8.779-1.102C.238-3.819.09-1.906 0 0" style="fill:#3e1051;fill-opacity:1;fill-rule:nonzero;stroke:none" transform="translate(133.943 225.403)"/><path d="M0 0c.509-3.239 1.359-6.415 2.087-9.609 1.578 1.397 3.233 3.42 2.312 5.668C3.968-1.759 1.958-.599 0 0m-10.601.142c3.027 5.1 10.485 6.807 15.413 3.464C9.584.644 11.162-6.415 7.916-11.046c-1.849-2.872-5.243-4.231-8.502-4.683C-1.81-10.788-2.943-5.822-4.315-.921-5.584-2.222-7.129-3.703-6.84-5.713c-.097-2.615 1.855-4.579 3.51-6.35-.831-1.289-1.661-2.577-2.524-3.852-5.597 2.841-7.884 10.646-4.747 16.057" style="fill:#3e1051;fill-opacity:1;fill-rule:nonzero;stroke:none" transform="translate(149.252 207.073)"/><path d="M0 0c6.318 2.428 12.424 5.526 18.89 7.497.812-1.365 1.327-2.879 1.9-4.354-.702-.457-1.41-.927-2.112-1.391 1.835-.65 3.935-1.392 4.682-3.395 1.223-2.221.554-4.747-.329-6.949 4.213-1.03 6.873-6.048 5.024-10.041-1.095-2.891-4.148-4.154-6.807-5.204-3.356-1.243-6.589-2.814-10.003-3.884-.689 1.675-1.765 3.318-1.829 5.159 3.678 1.849 7.671 3.001 11.355 4.818 1.507.709 2.615 2.551 1.648 4.129-.605 1.822-2.775 2.261-4.392 1.596-3.787-1.403-7.477-3.065-11.232-4.553-.87 1.63-1.604 3.33-2.299 5.037 3.961 2.17 8.43 3.259 12.353 5.474 2.608 1.629.74 6.009-2.132 5.701-4.451-1.109-8.386-3.73-12.856-4.786C1.204-3.439.496-1.752 0 0" style="fill:#3e1051;fill-opacity:1;fill-rule:nonzero;stroke:none" transform="translate(141.614 184.64)"/><path d="M0 0c2.383 1.913 6.157-.67 5.417-3.574C5.185-6.196 1.404-7.581-.348-5.5-2.061-4.142-1.868-1.127 0 0" style="fill:#3e1051;fill-opacity:1;fill-rule:nonzero;stroke:none" transform="translate(178.505 166.201)"/><path d="M0 0c4.734 2.55 9.3 5.436 14.15 7.761.863-1.566 1.732-3.124 2.596-4.696C10.981-.65 4.875-3.819-1.134-7.117c-.914 1.565-1.854 3.124-2.576 4.779C-2.615-1.353-1.269-.715 0 0" style="fill:#3e1051;fill-opacity:1;fill-rule:nonzero;stroke:none" transform="translate(159.583 154.892)"/><path d="M0 0c1.816-2.763 3.665-5.52 5.687-8.146.67 1.777 1.494 3.941.238 5.661C4.779-.373 2.287.509 0 0m-9.365-1.861C-7.458 3.472-1.05 6.763 4.354 4.901c5.333-1.68 8.933-8.076 6.75-13.415-.915-2.769-3.169-4.74-5.546-6.273C2.312-10.813-.47-6.485-3.529-2.376c-1.037-1.791-1.559-4.115-.367-5.971 1.069-2.074 3.232-3.156 5.319-3.961a355.249 355.249 0 0 1-.882-4.508c-6.949.386-12.321 8.399-9.906 14.955" style="fill:#3e1051;fill-opacity:1;fill-rule:nonzero;stroke:none" transform="translate(173.868 146.653)"/><path d="M0 0c5.133 4.425 10.144 8.985 15.335 13.339 1.069-1.179 2.113-2.377 3.169-3.581-.522-.76-1.044-1.539-1.571-2.306 2.724.412 5.306-.94 6.575-3.355-1.314-1.159-2.634-2.313-4.012-3.401-1.495 1.81-3.671 4.038-6.247 2.788-3.607-1.97-6.106-5.455-9.533-7.715C2.151-3.149 1.005-1.584 0 0" style="fill:#3e1051;fill-opacity:1;fill-rule:nonzero;stroke:none" transform="translate(175.118 123.95)"/><path d="M0 0c6.531 8.051 12.907 16.25 19.657 24.12 1.539-1.217 3.097-2.421 4.502-3.806C18.974 13.674 13.654 7.143 8.283.65c3.175-2.82 6.685-5.242 9.802-8.121-.058-1.913-2.209-3.169-3.362-4.618C9.886-7.974 4.714-4.251 0 0" style="fill:#3e1051;fill-opacity:1;fill-rule:nonzero;stroke:none" transform="translate(194.562 103.205)"/><path d="M0 0c2.834-1.811 5.597-3.762 8.643-5.198.032 2.067-.528 4.374-2.499 5.424C4.27 1.623 1.9.921 0 0m-7.8-5.462C-8.083.122-3.523 5.532 2.074 6.086c5.094.618 10.363-2.995 11.464-8.038.87-3.356-.56-6.763-2.493-9.468C6.486-9.068 2.248-6.151-2.273-3.723c-.181-2.176.386-4.663 2.421-5.829 1.694-1.372 3.935-1.191 5.977-1.159.457-1.507.85-3.04 1.243-4.573C.779-17.77-7.336-12.502-7.8-5.462" style="fill:#3e1051;fill-opacity:1;fill-rule:nonzero;stroke:none" transform="translate(223.287 97.01)"/><path d="M0 0c-2.351-1.288-3.774-4.419-2.622-6.95 1.038-2.602 4.387-4.135 6.969-2.911C7.11-8.708 8.495-5.043 7.097-2.37 5.899.154 2.473 1.256 0 0m-1.366 5.603c4.445 1.61 10.235-.67 11.594-5.397.611.606 1.191 1.242 1.887 1.745 1.507-.476 2.891-1.263 4.276-2.029-2.847-6.151-5.423-12.424-8.366-18.529-1.533.541-3.066 1.114-4.457 1.958.071.811.245 1.597.393 2.382-4.908-2.569-10.943.954-12.347 5.996-2.113 5.572 1.359 12.218 7.02 13.874" style="fill:#3e1051;fill-opacity:1;fill-rule:nonzero;stroke:none" transform="translate(245.333 86.003)"/><path d="M0 0c-1.662-.991-2.873-2.84-2.783-4.817-.096-2.525 1.984-4.83 4.425-5.287 3.362-.638 6.686 2.569 6.26 5.944C7.645-.547 3.13 1.945 0 0m-5.133 3.42C-1.043 7.239 7.001 7.111 9.5 1.521c.457.637.901 1.288 1.43 1.874 1.577-.149 3.065-.741 4.585-1.153-1.179-5.218-2.891-10.299-4.264-15.464-1.036-3.761-1.983-8.231-5.796-10.189-6.119-3.105-14.008-.316-17.557 5.371 1.256 1.282 2.685 2.364 4.109 3.446 2.242-2.86 5.771-5.533 9.609-4.412 2.164.58 2.834 2.904 3.723 4.67-3.703-1.881-8.347-.973-11.129 2.08-4.322 4.154-3.903 11.863.657 15.676" style="fill:#3e1051;fill-opacity:1;fill-rule:nonzero;stroke:none" transform="translate(268.68 77.333)"/><path d="M0 0c1.881-.096 3.761-.321 5.597-.76-.438-4.237-1.507-8.436-1.398-12.719.116-2.249 2.596-3.021 4.399-3.524 1.507.632 3.298 1.295 3.8 3.04.966 3.942 1.192 8.031 1.855 12.031 1.907-.109 3.807-.341 5.662-.818-.522-3.793-1.031-7.593-1.611-11.38-.457-3.33-2.705-6.467-5.964-7.516-5.371-1.946-12.784.798-13.796 6.891C-1.881-9.796-.625-4.895 0 0" style="fill:#3e1051;fill-opacity:1;fill-rule:nonzero;stroke:none" transform="translate(286.894 78.892)"/><path d="M0 0c3.33-.154 6.672-.213 10.002-.059-1.069 1.643-2.486 3.492-4.663 3.408C2.943 3.678 1.198 1.803 0 0m-.502 6.872c4.334 2.679 10.646 1.816 13.724-2.37 1.881-2.377 2.306-5.507 2.107-8.45-5.115-.618-10.273-.219-15.4-.534.953-1.379 1.965-2.918 3.703-3.37 2.628-1.12 5.12.677 7.408 1.765a17.022 17.022 0 0 0 3.065-3.239C10.743-13.744 3.832-14.195-.773-11.58c-6.602 3.8-6.389 14.826.271 18.452" style="fill:#3e1051;fill-opacity:1;fill-rule:nonzero;stroke:none" transform="translate(313.984 68.291)"/><path d="M0 0c-2.058-.953-3.23-1.358-4.26-1.994-20.095-12.421-38.091-27.354-53.383-45.39-27.798-32.786-43.724-70.677-47.325-113.485-2.507-29.805-2.2-59.545 5.635-88.762 35.513-132.43 183.84-195.494 303.901-129.194 1.163.642 2.374 1.197 4.347 2.185l-4.037-17.513c2.195 1.006 3.413 1.405 4.465 2.069 34.797 21.913 62.59 50.387 80.67 87.595 23.973 49.338 27.454 101.448 16.025 154.049C276.627-15.076 124.143 53.548 2.5-12.898c-1.736-.949-3.506-1.838-6.196-3.245L0 0m102.688 28.619c124.087.116 225.072-101.061 225.255-225.686.184-124.48-101.12-225.208-226.57-225.281-123.02-.072-223.906 101.462-223.924 225.362C-122.57-72.482-21.748 28.503 102.688 28.619" style="fill:#3e1051;fill-opacity:1;fill-rule:nonzero;stroke:none" transform="translate(217.304 436.865)"/><path d="M0 0c-3.557-2.45-6.426-4.299-9.133-6.361-.929-.708-1.828-1.858-2.099-2.963-3.122-12.751 4.578-21.041 12.438-30.081C6.804-25.797 5.084-13.195 0 0m-48.972-56.475c1.466-2.816 3.634-6.571 5.399-10.508 1.294-2.885 2.99-3.534 5.717-2.167 4.989 2.501 9.998 4.965 15.585 7.734l1.987-15.74c.728.156 1.282.113 1.606.364 7.544 5.88 12.404 13.817 13.048 23.052.299 4.289-2.702 10.487-6.208 12.852-2.98 2.01-9.457 1.023-13.285-.867-8.152-4.029-15.59-9.504-23.849-14.72m-20.979 39.397c3.943-7.446 7.857-14.366 11.291-21.517 1.688-3.517 3.863-4.263 7.373-3.41 11.624 2.825 20.561 10.14 29.521 17.434.463.377.96 1.056.966 1.6.058 4.871.705 9.901-.345 14.539-.434 1.924-4.572 3.003-7.017 4.481-1.529.926-2.936 2.235-4.59 2.732-2.306.693-5.011 1.591-7.162 1.003-11.166-3.053-20.517-9.511-30.037-16.862m36.546-135.425-3.915 14.171c-11.097-4.562-21.44-9.832-32.382-13.088-19.655-5.85-39.207-4.611-58.168 3.885-4.026 1.804-5.076 3.852-4.159 8.168 4.026 18.959 5.502 38.014.66 57.105a41.35 41.35 0 0 1-.955 3.277c-.14.409-.496.745-1.281 1.869-10.042-14.39-20.358-28.079-34.734-39.28-11.245 24.5-11.201 49.556-8.009 75.729l-20.457-6.026c2.585 22.932 11.22 42.555 24.711 61.02l-12.327 2.428c8.609 17.452 20.408 31.729 36.515 44.016-2.718-12.553-2.069-23.125 9.027-30.5-.864 3.693-1.985 7.349-2.507 11.089-.396 2.845-.447 5.872.071 8.686 1.93 10.493 9.689 14.979 19.873 11.727 1.927-.615 3.796-1.413 6.757-2.528-2.858 7.355-8.027 10.365-13.785 12.757l-.194 1.569c9.528 2.983 18.907 6.666 28.629 8.742 8.686 1.855 17.752 1.915 26.647 2.807 8.453.847 15.183-2.469 20.893-8.432 1.966-2.054 4.094-3.952 6.148-5.921l1.272.618-2.132 10.021c1.061-.101 2.106-.05 3.063-.315 10.284-2.852 19.963-6.987 28.351-13.739 1.374-1.106 3.175-2.302 3.642-3.809 2.088-6.746 3.767-13.62 5.447-19.898a448113.46 448113.46 0 0 0-29.961 20.804l-4.002-12.599c-7.42 4.518-14.048 8.931-21.056 12.623-2.604 1.372-6.238 1.866-9.164 1.365-11.699-2.004-22.496-6.358-32.338-14.503l5.896-4.205c-7.346-3.644-13.549-6.942-18.603-14.194 8.695 1.386 9.682-4.211 12.171-9.326 4.156-8.543 12.015-12.827 21.401-13.171 11.485-.421 22.998-.101 34.976-.101-3.394 3.48-7.27 7.197-10.844 11.185-4.039 4.508-8.918 6.113-14.846 5.61-8.395-.713-16.086 1.292-22.817 6.601 9.205 10.982 17.804 11.253 36.433 1.387l8.994 4.619c.433-.833.753-1.18.677-1.341-3.947-8.343-3.89-8.281 2.641-14.973 3.966-4.063 7.705-8.348 11.265-12.227 5.021.873 9.922 2.219 14.875 2.448 4.945.228 9.943-.664 15.377-1.102l-21.663 22.762 1.465 1.828 8.238-4.713c3.221.653 5.308 7.191 9.926 2.771 3.436-3.289 3.125-6.708-.346-10.744L.716 15.22l1.534 4.667c.495-.043.949.045 1.059-.11C27.091-13.879 33.822-50.219 20.604-90.656l-9.806 10.318c-2.305-15.451-6.167-29.079-13.836-41.378-7.693-12.339-17.636-22.406-30.367-30.787" style="fill:#3e1051;fill-opacity:1;fill-rule:nonzero;stroke:none" transform="translate(399.309 270.62)"/><path d="m0 0 2.184-28.033 15.077 16.494 1.071-1.054L11.881-42.1c-33.034 8.205-64.781 4.739-94.862-11.67l-13.835 29.432 19.731-12.377-4.171 27.481 29.836-20.538L-41.117-.015c5.8-9.239 11.071-17.636 16.769-26.716L0 0" style="fill:#3e1051;fill-opacity:1;fill-rule:nonzero;stroke:none" transform="translate(345.97 401.227)"/></g></svg>